<?xml version="1.0" encoding="UTF-8"?>
<!-- Generator: visioncortex VTracer 0.6.3 -->
<svg version="1.1" xmlns="http://www.w3.org/2000/svg" viewBox="-300 -50 800 300">
    <rect width="200" height="200" fill="#000000" rx="15" />

    <path
        d="M0 0 C2.97 0 5.94 0 9 0 C9 1.37 9.01 2.73 9.01 4.14 C9.03 9.22 9.09 14.3 9.15 19.38 C9.18 21.58 9.19 23.77 9.2 25.97 C9.2 29.13 9.25 32.29 9.29 35.45 C9.29 36.43 9.29 37.41 9.28 38.42 C9.34 41.04 9.46 43.44 10 46 C12.11 49.19 12.11 49.19 15 51 C18.45 51.79 18.45 51.79 20.8 51.57 C23.57 50.85 25.55 49.63 27.94 48.06 C30.58 46.16 30.58 46.16 33 44 C33.12 42.62 33.18 41.23 33.21 39.85 C33.23 38.97 33.25 38.09 33.27 37.18 C33.29 35.74 33.29 35.74 33.32 34.28 C33.34 33.3 33.36 32.33 33.38 31.32 C33.44 28.19 33.5 25.07 33.56 21.94 C33.61 19.82 33.65 17.71 33.69 15.59 C33.8 10.39 33.9 5.2 34 0 C37.3 0 40.6 0 44 0 C44 19.14 44 38.28 44 58 C41.03 58 38.06 58 35 58 C34.5 55.03 34.5 55.03 34 52 C32.95 52.78 31.9 53.57 30.81 54.38 C28 56.47 25.34 57.89 22 59 C18.29 59.47 14.72 59.42 11 59 C8.87 58.35 8.87 58.35 7.06 57.44 C4 55 4 55 1.83 52.05 C0.81 50.16 0.81 50.16 0 48 C-0.52 44.26 -0.47 40.59 -0.39 36.82 C-0.38 35.76 -0.38 34.71 -0.37 33.62 C-0.35 30.27 -0.3 26.91 -0.25 23.56 C-0.23 21.28 -0.21 19 -0.2 16.72 C-0.15 11.15 -0.08 5.57 0 0 Z "
        fill="#499105" transform="translate(78,73)" />
    <path
        d="M0 0 C2.64 0 5.28 0 8 0 C8.33 2.31 8.66 4.62 9 7 C9.53 6.58 10.06 6.16 10.61 5.72 C11.32 5.17 12.02 4.63 12.75 4.06 C13.45 3.52 14.14 2.97 14.86 2.41 C17 1 17 1 18.86 0.32 C21.73 -0.11 24.53 -0.21 27.44 -0.25 C29.11 -0.29 29.11 -0.29 30.81 -0.33 C34 0 34 0 36.77 1.33 C39 3 39 3 41.25 6 C43 9 43 9 44 12 C44.09 13.52 44.12 15.04 44.11 16.56 C44.11 17.48 44.11 18.4 44.11 19.35 C44.11 20.34 44.1 21.33 44.1 22.36 C44.1 23.37 44.09 24.39 44.09 25.44 C44.09 28.69 44.08 31.94 44.06 35.19 C44.06 37.39 44.05 39.59 44.05 41.79 C44.04 47.2 44.02 52.6 44 58 C40.7 58 37.4 58 34 58 C33.97 55.99 33.97 55.99 33.94 53.93 C33.86 48.95 33.78 43.97 33.68 38.99 C33.64 36.84 33.61 34.68 33.58 32.53 C33.53 29.43 33.47 26.33 33.41 23.23 C33.4 22.27 33.39 21.31 33.38 20.31 C33.36 19.41 33.34 18.51 33.32 17.58 C33.31 16.79 33.29 16 33.28 15.19 C33.09 12.94 33.09 12.94 32.11 10.78 C31.56 9.9 31.56 9.9 31 9 C30.34 8.67 29.68 8.34 29 8 C25.63 7.63 22.37 7.62 19 8 C15.56 9.65 15.56 9.65 13 12 C12.19 12.68 12.19 12.68 11.37 13.37 C10.92 13.91 10.46 14.45 10 15 C9.53 17.03 9.53 17.03 9.57 19.29 C9.55 20.15 9.53 21.01 9.51 21.9 C9.5 23.28 9.5 23.28 9.49 24.7 C9.47 25.65 9.45 26.6 9.43 27.58 C9.38 30.61 9.35 33.65 9.31 36.69 C9.28 38.75 9.24 40.8 9.21 42.86 C9.12 47.91 9.06 52.95 9 58 C6.03 58 3.06 58 0 58 C0 38.86 0 19.72 0 0 Z "
        fill="#4A9205" transform="translate(13,73)" />
    <path
        d="M0 0 C9.25 4.75 18 10.28 26.82 15.78 C31.84 18.92 36.91 21.97 42 25 C42 28.63 42 32.26 42 36 C40.57 36.86 39.14 37.71 37.66 38.59 C32.23 41.85 26.83 45.17 21.44 48.5 C20.12 49.31 20.12 49.31 18.77 50.14 C13.69 53.28 8.7 56.51 3.8 59.92 C3.2 60.27 2.61 60.63 2 61 C1.34 61 0.68 61 0 61 C-1.32 58.69 -2.64 56.38 -4 54 C8.23 46.16 20.48 38.37 33 31 C29.36 27.95 25.61 25.45 21.53 23.03 C20.29 22.29 19.04 21.54 17.8 20.8 C15.87 19.65 13.93 18.49 11.99 17.35 C10.1 16.22 8.22 15.1 6.34 13.97 C4.66 12.97 4.66 12.97 2.95 11.95 C0.26 10.17 -1.83 8.37 -4 6 C-2.68 4.02 -1.36 2.04 0 0 Z "
        fill="#F7F7F7" transform="translate(146,66)" />
</svg>