<svg xmlns="http://www.w3.org/2000/svg" viewBox="-50 -50 1100 1100" style="background: white">
    <defs>
        <radialGradient id="cheek-gradient">
            <stop offset="10%" stop-color="rgba(0,0,0,0.4)" />
            <stop offset="60%" stop-color="rgba(0,0,0,0.1)" />
        </radialGradient>
        <filter id="cheek-blur">
            <feGaussianBlur stdDeviation="4" />
        </filter>
        <filter id="face-blur">
            <feGaussianBlur stdDeviation="1" />
        </filter>
    </defs>

    <g id="frame" fill="black">
        <path
            d="M 284 663 C -34 587 1 42 522 60 C 888 70 952 491 728 626 A 1 1 0 0 0 752 652 L 790 616 C 1009 431 877 22 521 22 C -79 13 -49 663 271 686 Q 224 823 227 967 A 1 1 0 0 0 258 967 C 261 891 279 790 298 705 Q 307 669 284 663 Z" />
        <path d="M 318 836 A 1 1 3 0 1 345 837 C 342 895 332 913 332 974 A 1 1 0 0 1 299 973 Q 301 895 318 836 Z" />
        <path
            d="M 690 629 A 1 1 0 0 0 674 664 C 808 736 859 601 833 577 A 1 1 0 0 0 809 591 C 821 613 752 673 690 629 Z" />
        <path
            d="M 858 510 A 1 1 0 0 1 886 494 C 996 716 835 759 789 813 Q 770 893 762 981 A 1 1 0 0 1 725 978 Q 739 854 757 796 C 885 681 916 680 858 510 Z" />
    </g>

    <g id="face" fill="black" filter="url(#face-blur)" shape-rendering="geometricPrecision">
        <path
            d="M 317 412 Q 341 401 368 419 C 384 410 390 417 412 405 A 1 1 0 0 1 420 421 Q 403 432 370 427 C 357 425 366 436 326 430 Q 302 420 317 412 Z" />
        <path
            d="M 236 206 C 323 222 337 274 336 301 C 323 273 301 224 238 235 L 252 291 L 240 308 L 265 318 Q 272 350 267 365 C 244 380 166 363 166 315 Q 173 223 236 206 Z" />
        <path
            d="M 528 160 C 572 164 604 259 573 309 C 581 218 534 157 494 196 Q 513 239 503 258 L 485 282 C 493 292 510 285 516 290 Q 527 296 517 339 C 487 360 421 346 431 262 Q 460 156 528 160 Z" />

        <g id="mouth">
            <path
                d="M 271 509 Q 274 507 291 508 Q 361 455 481 493 C 469 526 441 550 437 556 Q 384 621 311 561 C 300 553 298 532 275 517 Z" />
            <path d="M 310 507 Q 356 476 458 498 Q 443 511 432 526 Q 362 525 327 535 Q 313 530 305 518 Z"
                fill="white" />
            <path d="M 353 573 Q 374 566 403 571 Q 378 588 353 573 Z" fill="white" />
        </g>


        <g id="cheek" filter="url(#cheek-blur)" fill="url(#cheek-gradient)">
            <path
                d="M 271 460 C 247 517 234 525 278 571 C 289 587 270 590 266 581 C 247 569 221 553 223 519 Q 233 478 257 459 Q 269 450 271 460 Z" />
            <path d="M 486 417 C 594 470 541 583 498 589 C 538 533 544 483 482 424 Q 476 414 486 417 Z" />
        </g>
    </g>
</svg>